<mxfile host="app.diagrams.net" modified="2021-08-30T00:10:07.974Z" agent="5.0 (Windows NT 10.0; Win64; x64) AppleWebKit/537.36 (KHTML, like Gecko) Chrome/92.0.4515.159 Safari/537.36" etag="vUXfetX_Nwn16YznOkN-" version="15.0.2" type="github">
  <diagram id="wE4TbOW_KgiuwPuGgQ-K" name="Page-1">
    <mxGraphModel dx="1209" dy="626" grid="1" gridSize="10" guides="1" tooltips="1" connect="1" arrows="1" fold="1" page="1" pageScale="1" pageWidth="850" pageHeight="1100" math="0" shadow="0">
      <root>
        <mxCell id="0" />
        <mxCell id="1" parent="0" />
        <mxCell id="4gDkVtWAjah2pzFI4OSx-1" value="" style="shape=image;verticalLabelPosition=bottom;labelBackgroundColor=#ffffff;verticalAlign=top;aspect=fixed;imageAspect=0;image=https://cdn.guru99.com/images/2/022220_0635_JDKvsJREvsJ1.png;" vertex="1" parent="1">
          <mxGeometry x="150" y="60" width="486" height="421" as="geometry" />
        </mxCell>
      </root>
    </mxGraphModel>
  </diagram>
</mxfile>
